<svg width="41" height="47" viewBox="0 0 41 47" fill="none" xmlns="http://www.w3.org/2000/svg">
<path d="M40.3125 11.7188L40.4062 11.625C40.3125 11.4375 40.1875 11.2578 40.0312 11.0859C39.875 10.9141 39.7031 10.7812 39.5156 10.6875L21.4219 0.234375C21.2656 0.140625 21.0859 0.078125 20.8828 0.046875C20.6797 0.015625 20.4688 0 20.25 0C20.0312 0 19.8203 0.0234375 19.6172 0.0703125C19.4141 0.117188 19.2344 0.171875 19.0781 0.234375L1.07812 10.6875C0.765625 10.875 0.507812 11.1719 0.304688 11.5781C0.101562 11.9844 0 12.375 0 12.75V33.6094C0 33.8281 0.0234375 34.0469 0.0703125 34.2656C0.117188 34.4844 0.203125 34.6875 0.328125 34.875L0.28125 34.9219C0.375 35.0781 0.484375 35.2188 0.609375 35.3438C0.734375 35.4688 0.859375 35.5625 0.984375 35.625L19.0312 46.125C19.1875 46.2188 19.3672 46.2812 19.5703 46.3125C19.7734 46.3438 19.9844 46.3594 20.2031 46.3594C20.4219 46.3594 20.6328 46.3359 20.8359 46.2891C21.0391 46.2422 21.2188 46.1875 21.375 46.125L39.375 35.625C39.6875 35.4375 39.9453 35.1484 40.1484 34.7578C40.3516 34.3672 40.4531 33.9844 40.4531 33.6094V12.7031C40.4844 12.5469 40.4844 12.3828 40.4531 12.2109C40.4219 12.0391 40.375 11.875 40.3125 11.7188ZM20.25 37.9688C18.2188 37.9688 16.2969 37.5781 14.4844 36.7969C12.7031 36.0156 11.1406 34.9609 9.79688 33.6328C8.45312 32.3047 7.39062 30.7344 6.60938 28.9219C5.82812 27.1094 5.4375 25.1875 5.4375 23.1562C5.4375 21.125 5.82812 19.2031 6.60938 17.3906C7.39062 15.6094 8.44531 14.0469 9.77344 12.7031C11.1016 11.3594 12.6719 10.2969 14.4844 9.51562C16.2969 8.73438 18.2188 8.34375 20.25 8.34375C21.625 8.34375 22.9531 8.53125 24.2344 8.90625C25.5156 9.25 26.7031 9.75 27.7969 10.4062C28.8906 11.0625 29.8906 11.8594 30.7969 12.7969C31.7031 13.7031 32.4688 14.7188 33.0938 15.8438L28.2188 18.6562C27.4375 17.25 26.3438 16.1172 24.9375 15.2578C23.5312 14.3984 21.9688 13.9688 20.25 13.9688C19 13.9688 17.8125 14.2031 16.6875 14.6719C15.5625 15.1719 14.5859 15.8359 13.7578 16.6641C12.9297 17.4922 12.2656 18.4688 11.7656 19.5938C11.2969 20.6875 11.0625 21.875 11.0625 23.1562C11.0625 24.4062 11.2969 25.5938 11.7656 26.7188C12.2656 27.8438 12.9297 28.8203 13.7578 29.6484C14.5859 30.4766 15.5625 31.1406 16.6875 31.6406C17.7812 32.1094 18.9688 32.3438 20.25 32.3438C21.9688 32.3438 23.5312 31.9141 24.9375 31.0547C26.3438 30.1953 27.4375 29.0781 28.2188 27.7031L33.0938 30.5625C32.4375 31.6562 31.6562 32.6562 30.75 33.5625C29.8438 34.4688 28.8438 35.25 27.75 35.9062C26.6562 36.5625 25.4688 37.0781 24.1875 37.4531C22.9375 37.7969 21.625 37.9688 20.25 37.9688ZM39.375 22.4062H38.1562L37.8281 23.9062H39.375V25.7812H37.5L37.0312 28.0312H35.2031L35.6719 25.7812H34.2188L33.7969 28.0312H31.9688L32.4375 25.7812H31.5V23.9062H32.8125L33.1406 22.4062H31.5V20.5312H33.4688L33.9375 18.2812H35.7656L35.3438 20.5312H36.75L37.2188 18.2812H39L38.5312 20.5312H39.375V22.4062ZM34.5938 23.9062H36.0469L36.375 22.4062H34.9688L34.5938 23.9062Z" fill="#227CFF"/>
</svg>
